# Blender v2.79 (sub 0) OBJ File: ''
# www.blender.org
mtllib podwojna_szafka.mtl
o caninet_5
v -0.003268 0.046291 -3.157060
v -0.003268 1.109085 -3.164669
v 6.063009 1.109085 -3.164669
v 6.063009 0.046291 -3.157060
v 6.063009 0.046290 2.604580
v -0.003268 0.046290 2.604580
v -0.516364 1.266605 3.204581
v -0.516364 6.848190 3.164620
v -5.998766 6.848190 3.164620
v -5.998766 1.266605 3.204581
v 6.063009 1.109084 2.596971
v -0.003268 1.171867 3.040938
v 6.063009 1.171867 3.040938
v 6.063009 6.896483 2.999953
v -0.003268 6.896483 2.999953
v -0.003268 1.109084 2.596971
v 6.063009 1.171868 -3.165119
v 6.063009 6.896484 -3.206104
v -1.333564 3.146244 3.146589
v -1.410429 2.044590 3.146841
v -1.410429 2.044590 3.246333
v -1.333564 3.146244 3.246080
v -0.003268 1.171868 -3.165119
v -0.003268 6.896484 -3.206104
v -6.069544 7.201405 -3.208171
v -6.069544 7.048944 -3.207138
v -6.069544 7.048944 2.669189
v -6.069544 7.201404 2.668156
v -0.003268 7.506323 -3.210238
v -0.003268 7.506322 2.666089
v 6.063009 7.506322 2.666089
v 6.063009 7.506323 -3.210238
v 6.063009 7.506322 2.962470
v -0.003268 7.506322 2.962470
v -0.003268 7.353862 3.015644
v 6.063009 7.353862 3.015644
v -1.333564 4.247897 3.245828
v -0.865461 3.146244 3.246080
v -0.865461 4.247897 3.245828
v 6.063009 7.353863 -3.209205
v -0.003268 7.353863 -3.209205
v 6.063009 7.353862 2.667122
v 6.063009 6.896483 2.670223
v 6.063009 7.048944 2.669189
v 6.063009 7.048944 3.057819
v 6.063009 6.896483 3.030777
v -0.865461 5.349549 3.245574
v -1.333564 5.349549 3.245574
v -0.003268 6.896483 2.670223
v -0.003268 6.896483 3.030777
v -0.003268 7.048944 3.057819
v -1.410429 6.451203 3.245321
v -0.865461 6.451203 3.245321
v 6.063009 6.896484 -3.206104
v -0.003268 7.048944 -3.207138
v 6.063009 7.048944 -3.207138
v -0.865461 2.044590 3.246333
v -0.003268 7.201404 3.044753
v 6.063009 7.201404 3.044753
v -0.516364 6.848190 2.987043
v -5.998766 6.848190 2.987043
v 6.063009 7.201405 -3.208171
v -0.003268 7.201405 -3.208171
v 6.063009 7.201404 2.668156
v -0.516364 1.266605 3.027005
v -5.998766 1.266605 3.027005
v 0.489647 1.266605 3.204581
v 5.992231 1.266605 3.204581
v 5.992231 6.848190 3.164620
v 0.489647 6.848190 3.164620
v 0.489647 1.266605 3.027005
v 5.992231 1.266605 3.027005
v 5.992231 6.848190 2.987043
v 0.489647 6.848190 2.987043
v 0.858926 2.044590 3.246333
v 1.403893 2.044590 3.246333
v 1.327028 3.146244 3.246080
v 0.858926 3.146244 3.246080
v 1.403893 6.451203 3.245321
v 0.858926 6.451203 3.245321
v 0.858926 5.349549 3.245574
v 1.327028 5.349549 3.245574
v 0.858926 4.247897 3.245828
v 1.327028 4.247897 3.245828
v -1.333564 4.247897 3.146336
v -6.069544 7.201404 3.044753
v -6.069544 7.048944 3.057819
v 1.403893 2.044590 3.146841
v 0.858926 2.044590 3.146841
v 1.327028 3.146244 3.146589
v 1.327028 4.247897 3.146336
v 1.327028 5.349549 3.146082
v 1.403893 6.451203 3.145829
v 0.858926 6.451203 3.145829
v 0.858926 5.349549 3.146082
v 0.858926 4.247897 3.146336
v 0.858926 3.146244 3.146589
v -6.069544 0.046291 -3.157060
v -6.069544 1.109085 -3.164669
v -6.069544 0.046290 2.604580
v -0.865461 2.044590 3.146841
v -6.069544 1.109084 2.596971
v -6.069544 6.896483 2.999953
v -6.069544 1.171867 3.040938
v -6.069544 6.896484 -3.206104
v -6.069544 1.171868 -3.165119
v -0.865461 3.146244 3.146589
v -6.069544 7.353862 3.015644
v -6.069544 7.353862 2.667122
v -6.069544 7.506323 -3.210238
v -6.069544 7.506322 2.666089
v -6.069544 7.506322 2.962470
v -0.865461 4.247897 3.146336
v -6.069544 7.353863 -3.209205
v -6.069544 6.896483 2.670223
v -6.069544 6.896483 3.030777
v -0.865461 5.349549 3.146082
v -0.003268 6.896483 2.670223
v -0.865461 6.451203 3.145829
v -6.069544 6.896484 -3.206104
v -1.410429 6.451203 3.145829
v -1.333564 5.349549 3.146082
vt 0.647098 0.351545
vt 0.647098 0.395036
vt 0.437536 0.395036
vt 0.437536 0.351545
vt 0.209562 0.373302
vt 0.419124 0.373302
vt 0.419124 0.609070
vt 0.209562 0.609070
vt 0.717042 0.873257
vt 0.525770 0.873256
vt 0.525770 0.651982
vt 0.717042 0.652628
vt 0.236649 0.875070
vt 0.199933 0.875070
vt 0.201358 0.639308
vt 0.238074 0.639308
vt 0.647098 0.105233
vt 0.856660 0.105233
vt 0.856660 0.339492
vt 0.647098 0.339492
vt 0.647098 0.043394
vt 0.856660 0.043394
vt 0.856660 0.086885
vt 0.647098 0.086885
vt 0.199299 0.621123
vt 0.197764 0.875070
vt 0.000062 0.875070
vt 0.000062 0.621123
vt 0.893633 0.893988
vt 0.934888 0.899009
vt 0.930682 0.902872
vt 0.893464 0.898341
vt 0.437536 0.397605
vt 0.647098 0.397605
vt 0.647098 0.631864
vt 0.437536 0.631864
vt 0.000062 0.899600
vt 0.000062 0.893362
vt 0.203107 0.893362
vt 0.203072 0.899600
vt 0.209562 0.336294
vt 0.209562 0.095832
vt 0.419124 0.095832
vt 0.419124 0.336294
vt 0.419124 0.083704
vt 0.209562 0.083704
vt 0.209562 0.077097
vt 0.419124 0.077097
vt 0.853361 0.898828
vt 0.893015 0.921670
vt 0.853044 0.919735
vt 0.419124 0.342532
vt 0.209562 0.342532
vt 0.737707 0.910735
vt 0.737707 0.670274
vt 0.742974 0.670232
vt 0.742974 0.910693
vt 0.758774 0.670105
vt 0.753507 0.670147
vt 0.753507 0.654244
vt 0.758774 0.655351
vt 0.812803 0.918949
vt 0.812899 0.898272
vt 0.209562 0.043394
vt 0.419124 0.043394
vt 0.419124 0.058148
vt 0.209562 0.058148
vt 0.419124 0.064484
vt 0.209562 0.064484
vt 0.781183 0.900065
vt 0.781839 0.914524
vt 0.419124 0.361249
vt 0.209562 0.361249
vt 0.209562 0.355010
vt 0.419124 0.355010
vt 0.758774 0.910566
vt 0.753507 0.910608
vt 0.737707 0.658146
vt 0.742974 0.655970
vt 0.929831 0.920506
vt 0.209562 0.070746
vt 0.419124 0.070746
vt 0.519185 0.881359
vt 0.519185 0.643917
vt 0.419124 0.348771
vt 0.209562 0.348771
vt 0.748240 0.670190
vt 0.748240 0.910651
vt 0.724353 0.881359
vt 0.748240 0.654779
vt 0.724353 0.643917
vt 0.986172 0.651804
vt 0.986172 0.873373
vt 0.795286 0.874649
vt 0.795286 0.651805
vt 0.993512 0.643303
vt 0.993512 0.881935
vt 0.788602 0.881935
vt 0.788602 0.643303
vt 0.512671 0.914674
vt 0.512343 0.897192
vt 0.550410 0.896286
vt 0.550106 0.919571
vt 0.662128 0.903644
vt 0.661256 0.918062
vt 0.630681 0.919772
vt 0.630904 0.898962
vt 0.590281 0.919072
vt 0.590514 0.898145
vt 0.000062 0.355010
vt 0.000062 0.348771
vt 0.853359 0.894503
vt 0.000062 0.070746
vt 0.000062 0.064484
vt 0.216533 0.893362
vt 0.216081 0.899600
vt 0.509410 0.893772
vt 0.508763 0.918543
vt 0.550412 0.891956
vt 0.590620 0.893825
vt 0.631172 0.894704
vt 0.665472 0.900831
vt 0.663734 0.920933
vt 0.630766 0.923929
vt 0.590283 0.923400
vt 0.549923 0.923929
vt 0.856660 0.351545
vt 0.856660 0.395036
vt 0.000062 0.609070
vt 0.000062 0.373302
vt 0.932896 0.924356
vt 0.255807 0.897865
vt 0.254382 0.662103
vt 0.291097 0.662103
vt 0.292522 0.897865
vt 0.437536 0.339492
vt 0.437536 0.105233
vt 0.437536 0.086885
vt 0.437536 0.043394
vt 0.293156 0.643917
vt 0.490921 0.643917
vt 0.492455 0.897865
vt 0.294691 0.897865
vt 0.892998 0.925936
vt 0.856660 0.397605
vt 0.856660 0.631864
vt 0.215076 0.905839
vt 0.203036 0.905839
vt 0.000062 0.336294
vt 0.000062 0.095832
vt 0.000062 0.083704
vt 0.000062 0.077097
vt 0.852935 0.924041
vt 0.000062 0.342532
vt 0.000062 0.912078
vt 0.000062 0.905839
vt 0.203000 0.912078
vt 0.203143 0.887123
vt 0.215598 0.887123
vt 0.812545 0.923149
vt 0.209562 0.043394
vt 0.000062 0.058148
vt 0.000062 0.043394
vt 0.778809 0.917458
vt 0.000062 0.361249
vt 0.000062 0.887123
vt 0.213239 0.912078
vt 0.778408 0.897232
vt 0.812799 0.893988
vn 0.0000 -0.0072 -1.0000
vn 0.0000 -1.0000 -0.0000
vn 0.0000 0.0072 1.0000
vn 1.0000 -0.0000 0.0000
vn -0.9994 0.0348 0.0000
vn -0.9976 0.0696 0.0000
vn 0.0000 -0.9901 0.1400
vn -1.0000 0.0000 0.0000
vn 0.0000 1.0000 0.0000
vn 0.0000 0.3293 0.9442
vn 0.0000 0.2591 0.9658
vn 0.0000 0.0002 1.0000
vn 0.0000 -0.0068 -1.0000
vn 0.0000 -0.1746 0.9846
vn 0.0000 -0.0450 0.9990
vn 0.0000 0.1366 0.9906
vn 0.9994 0.0348 0.0000
vn 0.9976 0.0696 0.0000
vn 0.9994 -0.0348 0.0000
vn 0.9976 -0.0696 0.0000
vn -0.9976 -0.0696 0.0000
vn -0.9994 -0.0348 0.0000
usemtl scene_material
s 1
f 1/1/1 2/2/1 3/3/1 4/4/1
f 1/5/2 4/6/2 5/7/2 6/8/2
f 7/9/3 8/10/3 9/11/3 10/12/3
f 4/13/4 3/14/4 11/15/4 5/16/4
f 12/17/3 13/18/3 14/19/3 15/20/3
f 6/21/3 5/22/3 11/23/3 16/24/3
f 13/25/4 17/26/4 18/27/4 14/28/4
f 19/29/5 20/30/6 21/31/6 22/32/5
f 17/33/1 23/34/1 24/35/1 18/36/1
f 16/24/7 11/23/7 13/18/7 12/17/7
f 3/3/1 2/2/1 23/34/1 17/33/1
f 25/37/8 26/38/8 27/39/8 28/40/8
f 11/15/4 3/14/4 17/26/4 13/25/4
f 29/41/9 30/42/9 31/43/9 32/44/9
f 33/45/10 34/46/10 35/47/11 36/48/11
f 37/49/12 22/32/12 38/50/12 39/51/12
f 29/41/13 32/44/13 40/52/13 41/53/13
f 32/54/4 31/55/4 42/56/4 40/57/4
f 43/58/4 44/59/4 45/60/4 46/61/4
f 31/43/9 30/42/9 34/46/9 33/45/9
f 39/51/12 47/62/12 48/63/12 37/49/12
f 49/64/2 43/65/2 46/66/2 50/67/2
f 50/67/14 46/66/14 45/68/15 51/69/15
f 52/70/12 48/63/12 47/62/12 53/71/12
f 54/72/13 24/73/13 55/74/13 56/75/13
f 43/58/4 54/76/4 56/77/4 44/59/4
f 31/55/4 33/78/4 36/79/4 42/56/4
f 57/80/12 38/50/12 22/32/12 21/31/12
f 58/81/16 59/82/16 36/48/11 35/47/11
f 8/10/9 60/83/9 61/84/9 9/11/9
f 62/85/13 63/86/13 41/53/13 40/52/13
f 64/87/4 62/88/4 40/57/4 42/56/4
f 7/9/4 65/89/4 60/83/4 8/10/4
f 59/90/4 64/87/4 42/56/4 36/79/4
f 64/87/4 59/90/4 45/60/4 44/59/4
f 59/82/16 58/81/16 51/69/15 45/68/15
f 9/11/8 61/84/8 66/91/8 10/12/8
f 63/86/13 62/85/13 56/75/13 55/74/13
f 62/88/4 64/87/4 44/59/4 56/77/4
f 10/12/2 66/91/2 65/89/2 7/9/2
f 67/92/3 68/93/3 69/94/3 70/95/3
f 68/93/2 67/92/2 71/96/2 72/97/2
f 69/94/4 68/93/4 72/97/4 73/98/4
f 67/92/8 70/95/8 74/99/8 71/96/8
f 70/95/9 69/94/9 73/98/9 74/99/9
f 75/100/12 76/101/12 77/102/12 78/103/12
f 79/104/12 80/105/12 81/106/12 82/107/12
f 83/108/12 84/109/12 82/107/12 81/106/12
f 84/109/12 83/108/12 78/103/12 77/102/12
f 63/86/13 55/74/13 26/110/13 25/111/13
f 85/112/8 19/29/5 22/32/5 37/49/8
f 86/113/16 87/114/15 51/69/15 58/81/16
f 28/40/8 27/39/8 87/115/8 86/116/8
f 88/117/2 76/101/2 75/100/2 89/118/2
f 90/119/17 77/102/17 76/101/18 88/117/18
f 91/120/4 84/109/4 77/102/17 90/119/17
f 92/121/19 82/107/19 84/109/4 91/120/4
f 93/122/20 79/104/20 82/107/19 92/121/19
f 94/123/9 80/105/9 79/104/9 93/122/9
f 95/124/8 81/106/8 80/105/8 94/123/8
f 96/125/8 83/108/8 81/106/8 95/124/8
f 97/126/8 78/103/8 83/108/8 96/125/8
f 89/118/8 75/100/8 78/103/8 97/126/8
f 1/1/1 98/127/1 99/128/1 2/2/1
f 1/5/2 6/8/2 100/129/2 98/130/2
f 20/30/2 101/131/2 57/80/2 21/31/2
f 98/132/8 100/133/8 102/134/8 99/135/8
f 12/17/3 15/20/3 103/136/3 104/137/3
f 6/21/3 16/24/3 102/138/3 100/139/3
f 104/140/8 103/141/8 105/142/8 106/143/8
f 101/131/4 107/144/4 38/50/4 57/80/4
f 106/145/1 105/146/1 24/35/1 23/34/1
f 16/24/7 12/17/7 104/137/7 102/138/7
f 99/128/1 106/145/1 23/34/1 2/2/1
f 86/116/8 108/147/8 109/148/8 28/40/8
f 102/134/8 104/140/8 106/143/8 99/135/8
f 29/41/9 110/149/9 111/150/9 30/42/9
f 112/151/10 108/152/11 35/47/11 34/46/10
f 107/144/4 113/153/4 39/51/4 38/50/4
f 29/41/13 41/53/13 114/154/13 110/149/13
f 110/155/8 114/156/8 109/148/8 111/157/8
f 115/158/8 116/159/8 87/115/8 27/39/8
f 111/150/9 112/151/9 34/46/9 30/42/9
f 113/153/4 117/160/4 47/62/4 39/51/4
f 118/161/2 50/67/2 116/162/2 115/163/2
f 50/67/14 51/69/15 87/114/15 116/162/14
f 117/160/4 119/164/4 53/71/4 47/62/4
f 120/165/13 26/110/13 55/74/13 24/73/13
f 115/158/8 27/39/8 26/38/8 120/166/8
f 111/157/8 109/148/8 108/147/8 112/167/8
f 119/164/9 121/168/9 52/70/9 53/71/9
f 58/81/16 35/47/11 108/152/11 86/113/16
f 121/168/21 122/169/22 48/63/22 52/70/21
f 25/111/13 114/154/13 41/53/13 63/86/13
f 28/40/8 109/148/8 114/156/8 25/37/8
f 122/169/22 85/112/8 37/49/8 48/63/22
