# Blender v2.79 (sub 0) OBJ File: ''
# www.blender.org
mtllib stolik.mtl
o Bein_4_Untitled.002
v 0.533125 -0.500000 -0.850000
v 0.533125 0.500000 -0.850000
v 0.633125 -0.500000 -0.850000
v 0.633125 0.500000 -0.850000
v 0.633125 -0.500000 -0.950000
v 0.633125 0.500000 -0.950000
v 0.533125 -0.500000 -0.950000
v 0.533125 0.500000 -0.950000
v -0.600000 -0.500000 -0.850000
v -0.600000 0.500000 -0.850000
v -0.500000 -0.500000 -0.850000
v -0.500000 0.500000 -0.850000
v -0.500000 -0.500000 -0.950000
v -0.500000 0.500000 -0.950000
v -0.600000 -0.500000 -0.950000
v -0.600000 0.500000 -0.950000
v 0.533125 -0.500000 0.950000
v 0.533125 0.500000 0.950000
v 0.633125 -0.500000 0.950000
v 0.633125 0.500000 0.950000
v 0.633125 -0.500000 0.850000
v 0.633125 0.500000 0.850000
v 0.533125 -0.500000 0.850000
v 0.533125 0.500000 0.850000
v -0.566875 -0.500000 0.950000
v -0.566875 0.500000 0.950000
v -0.466875 -0.500000 0.950000
v -0.466875 0.500000 0.950000
v -0.466875 -0.500000 0.850000
v -0.466875 0.500000 0.850000
v -0.566875 -0.500000 0.850000
v -0.566875 0.500000 0.850000
v -0.666875 0.475176 1.100000
v -0.666875 0.525176 1.100000
v 0.733125 0.475176 1.100000
v 0.733125 0.525176 1.100000
v 0.733125 0.475176 -1.100000
v 0.733125 0.525176 -1.100000
v -0.666875 0.475176 -1.100000
v -0.666875 0.525176 -1.100000
vt 0.875000 0.955281
vt 0.625000 0.955281
vt 0.625000 0.044719
vt 1.125000 0.955281
vt 0.875000 0.044719
vt 0.375000 0.955281
vt 0.125000 0.955281
vt 0.125000 0.044719
vt 0.375000 0.044719
vt 1.375000 0.044719
vt 1.125000 0.044719
vt 0.875000 0.955281
vt 0.625000 0.955281
vt 0.625000 0.044719
vt 1.125000 0.955281
vt 0.875000 0.044719
vt 0.375000 0.955281
vt 0.125000 0.955281
vt 0.125000 0.044719
vt 0.375000 0.044719
vt 1.125000 0.044719
vt 0.875000 0.955281
vt 0.625000 0.955281
vt 0.625000 0.044719
vt 1.125000 0.955281
vt 0.875000 0.044719
vt 0.375000 0.955281
vt 0.125000 0.955281
vt 0.125000 0.044719
vt 0.375000 0.044719
vt 1.375000 0.955281
vt 1.125000 0.044719
vt 0.875000 0.955281
vt 0.625000 0.955281
vt 0.625000 0.044719
vt 1.125000 0.955281
vt 0.875000 0.044719
vt 0.375000 0.955281
vt 0.125000 0.955281
vt 0.125000 0.044719
vt 0.375000 0.044719
vt 1.125000 0.044719
vt 0.850000 0.512500
vt 0.150000 0.512500
vt 0.150000 0.487500
vt 1.050000 0.512500
vt -0.050000 0.512500
vt -0.050000 0.487500
vt 0.850000 0.512500
vt 0.150000 0.512500
vt 0.150000 0.487500
vt 1.050000 0.512500
vt -0.050000 0.512500
vt -0.050000 0.487500
vt 0.850000 1.050000
vt 0.150000 1.050000
vt 0.150000 -0.050000
vt 0.850000 1.050000
vt 0.150000 1.050000
vt 0.150000 -0.050000
vt 0.850000 0.487500
vt 1.050000 0.487500
vt 0.850000 0.487500
vt 1.050000 0.487500
vt 0.850000 -0.050000
vt 0.850000 -0.050000
vn 0.0000 -0.0000 1.0000
vn 1.0000 0.0000 0.0000
vn 0.0000 0.0000 -1.0000
vn -1.0000 0.0000 0.0000
vn 0.0000 1.0000 0.0000
vn 0.0000 -1.0000 0.0000
usemtl Mat.002
s 1
f 4/1/1 2/2/1 1/3/1
f 6/4/2 4/1/2 3/5/2
f 8/6/3 6/7/3 5/8/3
f 2/2/4 8/6/4 7/9/4
f 6/7/5 8/6/5 2/2/5
f 3/5/6 1/3/6 7/10/6
f 3/5/1 4/1/1 1/3/1
f 5/11/2 6/4/2 3/5/2
f 7/9/3 8/6/3 5/8/3
f 1/3/4 2/2/4 7/9/4
f 4/1/5 6/7/5 2/2/5
f 5/11/6 3/5/6 7/10/6
f 12/12/1 10/13/1 9/14/1
f 14/15/2 12/12/2 11/16/2
f 16/17/3 14/18/3 13/19/3
f 10/13/4 16/17/4 15/20/4
f 14/18/5 16/17/5 10/13/5
f 11/16/6 9/14/6 15/20/6
f 11/16/1 12/12/1 9/14/1
f 13/21/2 14/15/2 11/16/2
f 15/20/3 16/17/3 13/19/3
f 9/14/4 10/13/4 15/20/4
f 12/12/5 14/18/5 10/13/5
f 13/19/6 11/16/6 15/20/6
f 20/22/1 18/23/1 17/24/1
f 22/25/2 20/22/2 19/26/2
f 24/27/3 22/28/3 21/29/3
f 18/23/4 24/27/4 23/30/4
f 22/25/5 24/31/5 18/23/5
f 19/26/6 17/24/6 23/30/6
f 19/26/1 20/22/1 17/24/1
f 21/32/2 22/25/2 19/26/2
f 23/30/3 24/27/3 21/29/3
f 17/24/4 18/23/4 23/30/4
f 20/22/5 22/25/5 18/23/5
f 21/29/6 19/26/6 23/30/6
f 28/33/1 26/34/1 25/35/1
f 30/36/2 28/33/2 27/37/2
f 32/38/3 30/39/3 29/40/3
f 26/34/4 32/38/4 31/41/4
f 30/39/5 32/38/5 26/34/5
f 27/37/6 25/35/6 31/41/6
f 27/37/1 28/33/1 25/35/1
f 29/42/2 30/36/2 27/37/2
f 31/41/3 32/38/3 29/40/3
f 25/35/4 26/34/4 31/41/4
f 28/33/5 30/39/5 26/34/5
f 29/40/6 27/37/6 31/41/6
f 36/43/1 34/44/1 33/45/1
f 38/46/2 36/47/2 35/48/2
f 40/49/3 38/50/3 37/51/3
f 34/52/4 40/53/4 39/54/4
f 38/55/5 40/56/5 34/57/5
f 35/58/6 33/59/6 39/60/6
f 35/61/1 36/43/1 33/45/1
f 37/62/2 38/46/2 35/48/2
f 39/63/3 40/49/3 37/51/3
f 33/64/4 34/52/4 39/54/4
f 36/65/5 38/55/5 34/57/5
f 37/66/6 35/58/6 39/60/6
o Stütze_3_Untitled.005
v -0.050000 0.250000 0.900000
v -0.050000 0.350000 0.900000
v 0.050000 0.250000 0.900000
v 0.050000 0.350000 0.900000
v 0.050000 0.250000 -0.900000
v 0.050000 0.350000 -0.900000
v -0.050000 0.250000 -0.900000
v -0.050000 0.350000 -0.900000
vt 0.525000 0.525000
vt 0.475000 0.525000
vt 0.475000 0.475000
vt 0.950000 0.525000
vt 0.050000 0.525000
vt 0.050000 0.475000
vt 0.525000 0.525000
vt 0.475000 0.525000
vt 0.475000 0.475000
vt 0.950000 0.525000
vt 0.050000 0.525000
vt 0.050000 0.475000
vt 0.525000 0.950000
vt 0.475000 0.950000
vt 0.475000 0.050000
vt 0.525000 0.950000
vt 0.475000 0.950000
vt 0.475000 0.050000
vt 0.525000 0.475000
vt 0.950000 0.475000
vt 0.525000 0.475000
vt 0.950000 0.475000
vt 0.525000 0.050000
vt 0.525000 0.050000
vn 0.0000 0.0000 1.0000
vn 1.0000 0.0000 0.0000
vn 0.0000 0.0000 -1.0000
vn -1.0000 0.0000 0.0000
vn 0.0000 1.0000 0.0000
vn 0.0000 -1.0000 -0.0000
usemtl Mat.1.2
s 1
f 44/67/7 42/68/7 41/69/7
f 46/70/8 44/71/8 43/72/8
f 48/73/9 46/74/9 45/75/9
f 42/76/10 48/77/10 47/78/10
f 46/79/11 48/80/11 42/81/11
f 43/82/12 41/83/12 47/84/12
f 43/85/7 44/67/7 41/69/7
f 45/86/8 46/70/8 43/72/8
f 47/87/9 48/73/9 45/75/9
f 41/88/10 42/76/10 47/78/10
f 44/89/11 46/79/11 42/81/11
f 45/90/12 43/82/12 47/84/12
o Stütze_2.001_Untitled.006
v -0.500000 0.250000 0.944140
v -0.500000 0.350000 0.944140
v 0.500000 0.250000 0.944140
v 0.500000 0.350000 0.944140
v 0.500000 0.250000 0.844140
v 0.500000 0.350000 0.844140
v -0.500000 0.250000 0.844140
v -0.500000 0.350000 0.844140
vt 0.750000 0.525000
vt 0.250000 0.525000
vt 0.250000 0.475000
vt 0.525000 0.525000
vt 0.475000 0.525000
vt 0.475000 0.475000
vt 0.750000 0.525000
vt 0.250000 0.525000
vt 0.250000 0.475000
vt 0.525000 0.525000
vt 0.475000 0.525000
vt 0.475000 0.475000
vt 0.750000 0.525000
vt 0.250000 0.525000
vt 0.250000 0.475000
vt 0.750000 0.525000
vt 0.250000 0.525000
vt 0.250000 0.475000
vt 0.750000 0.475000
vt 0.525000 0.475000
vt 0.750000 0.475000
vt 0.525000 0.475000
vt 0.750000 0.475000
vt 0.750000 0.475000
vn 0.0000 0.0000 1.0000
vn 1.0000 0.0000 0.0000
vn 0.0000 0.0000 -1.0000
vn -1.0000 0.0000 0.0000
vn 0.0000 1.0000 0.0000
vn 0.0000 -1.0000 -0.0000
usemtl Mat.1.1
s 1
f 52/91/13 50/92/13 49/93/13
f 54/94/14 52/95/14 51/96/14
f 56/97/15 54/98/15 53/99/15
f 50/100/16 56/101/16 55/102/16
f 54/103/17 56/104/17 50/105/17
f 51/106/18 49/107/18 55/108/18
f 51/109/13 52/91/13 49/93/13
f 53/110/14 54/94/14 51/96/14
f 55/111/15 56/97/15 53/99/15
f 49/112/16 50/100/16 55/102/16
f 52/113/17 54/103/17 50/105/17
f 53/114/18 51/106/18 55/108/18
o Stütze.001_Untitled.003
v -0.500000 0.250000 -0.849088
v -0.500000 0.350000 -0.849088
v 0.500000 0.250000 -0.849088
v 0.500000 0.350000 -0.849088
v 0.500000 0.250000 -0.949088
v 0.500000 0.350000 -0.949088
v -0.500000 0.250000 -0.949088
v -0.500000 0.350000 -0.949088
vt 0.750000 0.525000
vt 0.250000 0.525000
vt 0.250000 0.475000
vt 0.525000 0.525000
vt 0.475000 0.525000
vt 0.475000 0.475000
vt 0.750000 0.525000
vt 0.250000 0.525000
vt 0.250000 0.475000
vt 0.525000 0.525000
vt 0.475000 0.525000
vt 0.475000 0.475000
vt 0.750000 0.525000
vt 0.250000 0.525000
vt 0.250000 0.475000
vt 0.750000 0.525000
vt 0.250000 0.525000
vt 0.250000 0.475000
vt 0.750000 0.475000
vt 0.525000 0.475000
vt 0.750000 0.475000
vt 0.525000 0.475000
vt 0.750000 0.475000
vt 0.750000 0.475000
vn 0.0000 0.0000 1.0000
vn 1.0000 0.0000 0.0000
vn 0.0000 0.0000 -1.0000
vn -1.0000 0.0000 0.0000
vn 0.0000 1.0000 0.0000
vn 0.0000 -1.0000 -0.0000
usemtl Mat.004
s 1
f 60/115/19 58/116/19 57/117/19
f 62/118/20 60/119/20 59/120/20
f 64/121/21 62/122/21 61/123/21
f 58/124/22 64/125/22 63/126/22
f 62/127/23 64/128/23 58/129/23
f 59/130/24 57/131/24 63/132/24
f 59/133/19 60/115/19 57/117/19
f 61/134/20 62/118/20 59/120/20
f 63/135/21 64/121/21 61/123/21
f 57/136/22 58/124/22 63/126/22
f 60/137/23 62/127/23 58/129/23
f 61/138/24 59/130/24 63/132/24
o Bein_1
v 59.874809 -47.586170 93.110710
v 59.874809 52.413830 93.110725
v 49.874809 52.413830 93.110725
v 49.874809 -47.586170 93.110710
v 59.874809 -47.586170 83.110710
v 59.874809 52.413830 83.110725
v 49.874809 -47.586170 83.110710
v 49.874809 52.413830 83.110725
vn 0.0000 -0.0000 1.0000
vn 1.0000 -0.0000 0.0000
vn 0.0000 0.0000 -1.0000
vn -1.0000 -0.0000 0.0000
vn 0.0000 1.0000 0.0000
vn 0.0000 -1.0000 0.0000
usemtl Mat
s 1
f 65//25 66//25 67//25 68//25
f 69//26 70//26 66//26 65//26
f 71//27 72//27 70//27 69//27
f 68//28 67//28 72//28 71//28
f 66//29 70//29 72//29 67//29
f 69//30 65//30 68//30 71//30
o Bein
v -50.125191 -47.586170 93.110710
v -50.125191 52.413830 93.110725
v -60.125191 52.413830 93.110725
v -60.125191 -47.586170 93.110710
v -50.125191 -47.586170 83.110710
v -50.125191 52.413830 83.110725
v -60.125191 -47.586170 83.110710
v -60.125191 52.413830 83.110725
vn 0.0000 -0.0000 1.0000
vn 1.0000 -0.0000 0.0000
vn 0.0000 0.0000 -1.0000
vn -1.0000 -0.0000 0.0000
vn 0.0000 1.0000 0.0000
vn 0.0000 -1.0000 0.0000
usemtl Mat
s 1
f 73//31 74//31 75//31 76//31
f 77//32 78//32 74//32 73//32
f 79//33 80//33 78//33 77//33
f 76//34 75//34 80//34 79//34
f 74//35 78//35 80//35 75//35
f 77//36 73//36 76//36 79//36
o Stütze_2
v 4.874811 27.413828 88.110725
v 4.874811 37.413830 88.110725
v -5.125189 37.413830 88.110725
v -5.125189 27.413828 88.110725
v 4.874811 27.413858 -91.889275
v 4.874811 37.413860 -91.889275
v -5.125189 27.413858 -91.889275
v -5.125189 37.413860 -91.889275
vn 0.0000 1.0000 0.0000
vn 0.0000 -1.0000 -0.0000
vn 0.0000 0.0000 1.0000
vn 1.0000 0.0000 0.0000
vn 0.0000 0.0000 -1.0000
vn -1.0000 0.0000 0.0000
usemtl Mat
s 1
f 82//37 86//37 88//37 83//37
f 85//38 81//38 84//38 87//38
usemtl Mat.1
f 81//39 82//39 83//39 84//39
f 85//40 86//40 82//40 81//40
f 87//41 88//41 86//41 85//41
f 84//42 83//42 88//42 87//42
o Stütze
v 49.874809 27.413857 -86.798119
v 49.874809 37.413860 -86.798119
v -50.125191 37.413860 -86.798119
v -50.125191 27.413857 -86.798119
v 49.874809 27.413858 -96.798119
v 49.874809 37.413860 -96.798119
v -50.125191 27.413858 -96.798119
v -50.125191 37.413860 -96.798119
vn 0.0000 0.0000 1.0000
vn 1.0000 0.0000 0.0000
vn 0.0000 0.0000 -1.0000
vn -1.0000 0.0000 0.0000
vn 0.0000 1.0000 0.0000
vn 0.0000 -1.0000 0.0000
usemtl Mat.1
s 1
f 89//43 90//43 91//43 92//43
f 93//44 94//44 90//44 89//44
f 95//45 96//45 94//45 93//45
f 92//46 91//46 96//46 95//46
f 90//47 94//47 96//47 91//47
f 93//48 89//48 92//48 95//48
o Stütze_1
v 49.874809 27.413828 92.524765
v 49.874809 37.413830 92.524765
v -50.125191 37.413830 92.524765
v -50.125191 27.413828 92.524765
v 49.874809 27.413830 82.524765
v 49.874809 37.413830 82.524765
v -50.125191 27.413830 82.524765
v -50.125191 37.413830 82.524765
vn 0.0000 0.0000 1.0000
vn 1.0000 0.0000 0.0000
vn 0.0000 0.0000 -1.0000
vn -1.0000 0.0000 0.0000
vn 0.0000 1.0000 0.0000
vn 0.0000 -1.0000 -0.0000
usemtl Mat.1
s 1
f 97//49 98//49 99//49 100//49
f 101//50 102//50 98//50 97//50
f 103//51 104//51 102//51 101//51
f 100//52 99//52 104//52 103//52
f 98//53 102//53 104//53 99//53
f 101//54 97//54 100//54 103//54
o Platte
v 69.874809 49.931412 108.110725
v 69.874809 54.931412 108.110725
v -70.125191 54.931412 108.110725
v -70.125191 49.931412 108.110725
v -70.125191 49.931450 -111.889275
v -70.125191 54.931450 -111.889275
v 69.874809 54.931450 -111.889275
v 69.874809 49.931450 -111.889275
vn 0.0000 0.0000 1.0000
vn 0.0000 0.0000 -1.0000
vn 0.0000 1.0000 0.0000
vn 0.0000 -1.0000 -0.0000
vn 1.0000 0.0000 0.0000
vn -1.0000 0.0000 0.0000
usemtl Mat
s 1
f 105//55 106//55 107//55 108//55
f 109//56 110//56 111//56 112//56
f 106//57 111//57 110//57 107//57
f 112//58 105//58 108//58 109//58
usemtl Mat.1
f 112//59 111//59 106//59 105//59
f 108//60 107//60 110//60 109//60
o Bein_3
v 59.874809 -47.586140 -86.889290
v 59.874809 52.413860 -86.889275
v 49.874809 52.413860 -86.889275
v 49.874809 -47.586140 -86.889290
v 59.874809 -47.586140 -96.889290
v 59.874809 52.413860 -96.889275
v 49.874809 -47.586140 -96.889290
v 49.874809 52.413860 -96.889275
vn 0.0000 -0.0000 1.0000
vn 1.0000 -0.0000 0.0000
vn 0.0000 0.0000 -1.0000
vn -1.0000 -0.0000 0.0000
vn 0.0000 1.0000 0.0000
vn 0.0000 -1.0000 0.0000
usemtl Mat
s 1
f 113//61 114//61 115//61 116//61
f 117//62 118//62 114//62 113//62
f 119//63 120//63 118//63 117//63
f 116//64 115//64 120//64 119//64
f 114//65 118//65 120//65 115//65
f 117//66 113//66 116//66 119//66
