# Blender v2.79 (sub 0) OBJ File: ''
# www.blender.org
mtllib z_szufladami.mtl
o caninet_3
v -2.837139 0.028433 -3.157060
v -2.837139 1.091228 -3.164669
v 2.828460 1.091228 -3.164669
v 2.828460 0.028433 -3.157060
v 2.828460 0.028432 2.604580
v -2.837139 0.028432 2.604580
v -2.837139 1.091227 2.596971
v 2.828460 1.091227 2.596971
v -2.837139 1.154010 3.040938
v 2.828460 1.154010 3.040938
v 2.828460 6.878625 2.999953
v -2.837139 6.878625 2.999953
v 2.828460 1.154011 -3.165119
v 2.828460 6.878626 -3.206104
v -2.837139 1.154011 -3.165119
v -2.837139 6.878626 -3.206104
v -2.837139 7.488464 -3.210238
v -2.837139 7.488463 2.666089
v 2.828460 7.488463 2.666089
v 2.828460 7.488464 -3.210238
v 2.828460 7.488463 2.962470
v -2.837139 7.488463 2.962470
v -2.837139 7.336005 3.015644
v 2.828460 7.336005 3.015644
v -2.837139 7.336006 -3.209205
v -2.837139 7.336005 2.667122
v 2.828460 7.336006 -3.209205
v 2.828460 7.336005 2.667122
v 2.828460 6.878625 2.670223
v 2.828460 7.031085 2.669189
v 2.828460 7.031085 3.057819
v 2.828460 6.878625 3.030777
v -2.837139 6.878625 2.670223
v -2.837139 6.878625 3.030777
v -2.837139 7.031085 3.057819
v -2.837139 6.878626 -3.206104
v -2.837139 7.031085 2.669189
v -2.837139 7.031086 -3.207138
v 2.828460 6.878626 -3.206104
v 2.828460 7.031086 -3.207138
v -2.837139 7.183545 3.044753
v 2.828460 7.183545 3.044753
v -2.837139 7.183546 -3.208171
v -2.837139 7.183545 2.668156
v 2.828460 7.183546 -3.208171
v 2.828460 7.183545 2.668156
v -2.771197 5.402414 3.204582
v 2.752847 5.402414 3.204582
v 2.752847 6.830333 3.164620
v -2.771197 6.830333 3.164620
v -2.771197 5.402414 3.027006
v 2.752847 5.402414 3.027006
v 2.752847 6.830333 2.987043
v -2.771197 6.830333 2.987043
v -2.771197 3.811368 3.204582
v 2.752847 3.811368 3.204582
v 2.752847 5.239286 3.164620
v -2.771197 5.239286 3.164620
v -2.771197 3.811368 3.027006
v 2.752847 3.811368 3.027006
v 2.752847 5.239286 2.987043
v -2.771197 5.239286 2.987043
v -2.771197 2.152534 3.204581
v 2.752847 2.152534 3.204581
v 2.752847 3.580451 3.164619
v -2.771197 3.580451 3.164619
v -2.771197 2.152534 3.027005
v 2.752847 2.152534 3.027005
v 2.752847 3.580451 2.987042
v -2.771197 3.580451 2.987042
v 1.464065 5.912645 3.230134
v 1.464065 6.274768 3.230134
v 0.732032 6.223692 3.229966
v 0.732032 5.912645 3.229966
v -1.464065 6.274768 3.229461
v -1.464065 5.912645 3.229461
v -0.732032 5.912645 3.229629
v -0.732032 6.223692 3.229629
v 0.000000 5.912645 3.229798
v 0.000000 6.223692 3.229798
v 1.464065 2.635626 3.164022
v 1.464065 2.635626 3.230134
v 0.732032 2.635626 3.229965
v 0.732032 2.635626 3.163854
v 0.000000 2.635626 3.229797
v 0.000000 2.635626 3.163687
v -0.732032 2.635626 3.229629
v -0.732032 2.635626 3.163517
v -1.464065 2.635626 3.229460
v -1.464065 2.635626 3.163349
v 1.464065 6.274768 3.164023
v 1.464065 5.912645 3.164023
v 0.732032 6.223692 3.163855
v 0.000000 6.223692 3.163687
v -0.732032 6.223692 3.163518
v -1.464065 6.274768 3.163350
v -1.464065 5.912645 3.163350
v -0.732032 5.912645 3.163518
v 0.000000 5.912645 3.163687
v 0.732032 5.912645 3.163855
v 1.464065 4.270216 3.230134
v 1.464065 4.632339 3.230134
v 0.732032 4.581264 3.229966
v 0.732032 4.270216 3.229966
v -1.464065 4.632339 3.229461
v -1.464065 4.270216 3.229461
v -0.732032 4.270216 3.229629
v -0.732032 4.581264 3.229629
v 0.000000 4.270216 3.229798
v 0.000000 4.581264 3.229798
v -1.464065 2.997749 3.229460
v -1.464065 2.997749 3.163349
v -0.732032 2.946672 3.229629
v -0.732032 2.946672 3.163517
v 0.000000 2.946672 3.229797
v 0.000000 2.946672 3.163687
v 0.732032 2.946672 3.229965
v 0.732032 2.946672 3.163854
v 1.464065 4.632339 3.164023
v 1.464065 4.270216 3.164023
v 0.732032 4.581264 3.163855
v 0.000000 4.581264 3.163687
v -0.732032 4.581264 3.163518
v -1.464065 4.632339 3.163350
v -1.464065 4.270216 3.163350
v -0.732032 4.270216 3.163518
v 0.000000 4.270216 3.163687
v 0.732032 4.270216 3.163855
v 1.464065 2.997749 3.230134
v 1.464065 2.997749 3.164022
vt 0.335861 0.440976
vt 0.382854 0.440976
vt 0.382854 0.770995
vt 0.335861 0.770995
vt 0.656456 0.770995
vt 0.656456 0.440976
vt 0.911209 0.440976
vt 0.911209 0.770995
vt 0.363129 0.427568
vt 0.361305 0.091963
vt 0.408298 0.091963
vt 0.410122 0.427568
vt 0.984791 0.427568
vt 0.937798 0.427568
vt 0.939622 0.091963
vt 0.986615 0.091963
vt 0.253122 0.409504
vt 0.253122 0.739523
vt 0.000000 0.739523
vt 0.000000 0.409504
vt 0.319940 0.409504
vt 0.319940 0.739523
vt 0.272947 0.739523
vt 0.272947 0.409504
vt 0.936987 0.066076
vt 0.935022 0.427568
vt 0.681900 0.427568
vt 0.683865 0.066076
vt 0.412898 0.427568
vt 0.410934 0.066076
vt 0.664055 0.066076
vt 0.666020 0.427568
vt 0.385630 0.770995
vt 0.385630 0.440976
vt 0.638752 0.440976
vt 0.638752 0.770995
vt 0.316484 0.396096
vt 0.056661 0.396096
vt 0.056661 0.066076
vt 0.316484 0.066076
vt 0.043556 0.066076
vt 0.043556 0.396096
vt 0.036417 0.396096
vt 0.036417 0.066076
vt 0.931252 0.783270
vt 0.931252 0.440976
vt 0.937993 0.441036
vt 0.937993 0.783331
vt 0.323225 0.066076
vt 0.323225 0.396096
vt 0.277000 0.940729
vt 0.017183 0.938409
vt 0.017183 0.929528
vt 0.277000 0.931848
vt 0.017183 0.902885
vt 0.017183 0.911766
vt 0.000000 0.911612
vt 0.001241 0.902743
vt 0.937993 0.803632
vt 0.931252 0.800534
vt 0.000000 0.396096
vt 0.000000 0.066076
vt 0.015942 0.066076
vt 0.015942 0.396096
vt 0.022788 0.066076
vt 0.022788 0.396096
vt 0.958216 0.441217
vt 0.958216 0.783511
vt 0.951475 0.783451
vt 0.951475 0.441157
vt 0.343448 0.066076
vt 0.343448 0.396096
vt 0.336707 0.396096
vt 0.336707 0.066076
vt 0.277000 0.905205
vt 0.277000 0.914086
vt 0.004079 0.938292
vt 0.001773 0.929390
vt 0.958216 0.804513
vt 0.951475 0.806088
vt 0.029554 0.396096
vt 0.029554 0.066076
vt 0.944734 0.441096
vt 0.944734 0.783391
vt 0.329966 0.066076
vt 0.329966 0.396096
vt 0.017183 0.920647
vt 0.277000 0.922967
vt 0.944734 0.805327
vt 0.000532 0.920498
vt 0.549188 0.795743
vt 0.775882 0.798675
vt 0.779150 0.881572
vt 0.544092 0.879858
vt 0.539927 0.784404
vt 0.785238 0.785499
vt 0.787509 0.891999
vt 0.534325 0.891999
vt 0.014863 0.764271
vt 0.241557 0.767203
vt 0.244825 0.850100
vt 0.009767 0.848386
vt 0.005602 0.752931
vt 0.250913 0.754027
vt 0.253184 0.860527
vt 0.000000 0.860527
vt 0.279433 0.795501
vt 0.505933 0.798285
vt 0.509244 0.881030
vt 0.274378 0.879548
vt 0.270173 0.784176
vt 0.515360 0.785025
vt 0.517752 0.891687
vt 0.264618 0.891687
vt 0.932906 0.820629
vt 0.933579 0.837209
vt 0.901968 0.841666
vt 0.901582 0.819600
vt 0.806352 0.839914
vt 0.806942 0.826231
vt 0.833356 0.822111
vt 0.833372 0.841703
vt 0.867587 0.821453
vt 0.867843 0.841243
vt 0.998925 0.614105
vt 0.996191 0.610701
vt 0.996897 0.569359
vt 0.999960 0.569331
vt 0.995469 0.524680
vt 0.998557 0.524562
vt 0.995011 0.479586
vt 0.998033 0.479313
vt 0.991912 0.444802
vt 0.994037 0.441340
vt 0.937171 0.840832
vt 0.935470 0.817040
vt 0.902120 0.845762
vt 0.867841 0.845339
vt 0.833279 0.845762
vt 0.804032 0.842544
vt 0.804317 0.823434
vt 0.833145 0.818130
vt 0.867497 0.817380
vt 0.901565 0.815565
vt 0.982241 0.633446
vt 0.994845 0.633263
vt 0.996886 0.675198
vt 0.980115 0.674517
vt 0.992786 0.800728
vt 0.982421 0.799546
vt 0.980079 0.764641
vt 0.994945 0.765199
vt 0.980609 0.719515
vt 0.995633 0.719854
vt 0.981482 0.444036
vt 0.979483 0.440976
vt 0.980130 0.479592
vt 0.977051 0.479470
vt 0.980465 0.524960
vt 0.977359 0.524957
vt 0.980169 0.569877
vt 0.977051 0.570078
vt 0.997748 0.628681
vt 0.979630 0.629923
vt 1.000000 0.675140
vt 0.998728 0.719976
vt 0.998020 0.765442
vt 0.994713 0.803861
vt 0.980222 0.802919
vt 0.977051 0.764800
vt 0.977508 0.719517
vt 0.977051 0.674398
vt 0.983578 0.611600
vt 0.980823 0.616343
vn 0.0000 -0.0072 -1.0000
vn 0.0000 -1.0000 -0.0000
vn -1.0000 -0.0000 0.0000
vn 1.0000 -0.0000 0.0000
vn 0.0000 0.0072 1.0000
vn 0.0000 -0.9901 0.1400
vn 0.0000 1.0000 0.0000
vn 0.0000 0.3293 0.9442
vn 0.0000 0.2591 0.9658
vn 0.0000 -0.0068 -1.0000
vn 0.0000 -0.1746 0.9846
vn 0.0000 -0.0450 0.9990
vn 0.0000 0.1366 0.9906
vn 0.0000 0.0280 0.9996
vn -0.0002 0.0000 1.0000
vn -0.0348 0.9994 0.0000
vn -0.0696 0.9976 0.0000
vn 0.0348 0.9994 0.0000
vn 0.0696 0.9976 0.0000
usemtl scene_material
s 1
f 1/1/1 2/2/1 3/3/1 4/4/1
f 1/5/2 4/6/2 5/7/2 6/8/2
f 1/9/3 6/10/3 7/11/3 2/12/3
f 4/13/4 3/14/4 8/15/4 5/16/4
f 9/17/5 10/18/5 11/19/5 12/20/5
f 6/21/5 5/22/5 8/23/5 7/24/5
f 10/25/4 13/26/4 14/27/4 11/28/4
f 15/29/3 9/30/3 12/31/3 16/32/3
f 13/33/1 15/34/1 16/35/1 14/36/1
f 7/24/6 8/23/6 10/18/6 9/17/6
f 3/3/1 2/2/1 15/34/1 13/33/1
f 2/12/3 7/11/3 9/30/3 15/29/3
f 8/15/4 3/14/4 13/26/4 10/25/4
f 17/37/7 18/38/7 19/39/7 20/40/7
f 21/41/8 22/42/8 23/43/9 24/44/9
f 18/45/3 17/46/3 25/47/3 26/48/3
f 17/37/10 20/40/10 27/49/10 25/50/10
f 20/51/4 19/52/4 28/53/4 27/54/4
f 29/55/4 30/56/4 31/57/4 32/58/4
f 19/39/7 18/38/7 22/42/7 21/41/7
f 18/45/3 26/48/3 23/59/3 22/60/3
f 33/61/2 29/62/2 32/63/2 34/64/2
f 34/64/11 32/63/11 31/65/12 35/66/12
f 36/67/3 33/68/3 37/69/3 38/70/3
f 39/71/10 36/72/10 38/73/10 40/74/10
f 29/55/4 39/75/4 40/76/4 30/56/4
f 19/52/4 21/77/4 24/78/4 28/53/4
f 33/68/3 34/79/3 35/80/3 37/69/3
f 41/81/13 42/82/13 24/44/9 23/43/9
f 43/83/3 44/84/3 26/48/3 25/47/3
f 45/85/10 43/86/10 25/50/10 27/49/10
f 46/87/4 45/88/4 27/54/4 28/53/4
f 44/84/3 41/89/3 23/59/3 26/48/3
f 42/90/4 46/87/4 28/53/4 24/78/4
f 46/87/4 42/90/4 31/57/4 30/56/4
f 42/82/13 41/81/13 35/66/12 31/65/12
f 44/84/3 43/83/3 38/70/3 37/69/3
f 43/86/10 45/85/10 40/74/10 38/73/10
f 45/88/4 46/87/4 30/56/4 40/76/4
f 41/89/3 44/84/3 37/69/3 35/80/3
f 47/91/14 48/92/14 49/93/14 50/94/14
f 48/92/2 47/91/2 51/95/2 52/96/2
f 49/93/4 48/92/4 52/96/4 53/97/4
f 47/91/3 50/94/3 54/98/3 51/95/3
f 50/94/7 49/93/7 53/97/7 54/98/7
f 55/99/14 56/100/14 57/101/14 58/102/14
f 56/100/2 55/99/2 59/103/2 60/104/2
f 57/101/4 56/100/4 60/104/4 61/105/4
f 55/99/3 58/102/3 62/106/3 59/103/3
f 58/102/7 57/101/7 61/105/7 62/106/7
f 63/107/14 64/108/14 65/109/14 66/110/14
f 64/108/2 63/107/2 67/111/2 68/112/2
f 65/109/4 64/108/4 68/112/4 69/113/4
f 63/107/3 66/110/3 70/114/3 67/111/3
f 66/110/7 65/109/7 69/113/7 70/114/7
f 71/115/15 72/116/15 73/117/15 74/118/15
f 75/119/15 76/120/15 77/121/15 78/122/15
f 79/123/15 80/124/15 78/122/15 77/121/15
f 80/124/15 79/123/15 74/118/15 73/117/15
f 81/125/2 82/126/2 83/127/2 84/128/2
f 84/128/2 83/127/2 85/129/2 86/130/2
f 86/130/2 85/129/2 87/131/2 88/132/2
f 88/132/2 87/131/2 89/133/2 90/134/2
f 91/135/4 72/116/4 71/115/4 92/136/4
f 93/137/16 73/117/16 72/116/17 91/135/17
f 94/138/7 80/124/7 73/117/16 93/137/16
f 95/139/18 78/122/18 80/124/7 94/138/7
f 96/140/19 75/119/19 78/122/18 95/139/18
f 97/141/3 76/120/3 75/119/3 96/140/3
f 98/142/2 77/121/2 76/120/2 97/141/2
f 99/143/2 79/123/2 77/121/2 98/142/2
f 100/144/2 74/118/2 79/123/2 99/143/2
f 92/136/2 71/115/2 74/118/2 100/144/2
f 101/145/15 102/146/15 103/147/15 104/148/15
f 105/149/15 106/150/15 107/151/15 108/152/15
f 109/153/15 110/154/15 108/152/15 107/151/15
f 110/154/15 109/153/15 104/148/15 103/147/15
f 90/134/3 89/133/3 111/155/3 112/156/3
f 112/156/19 111/155/19 113/157/18 114/158/18
f 114/158/18 113/157/18 115/159/7 116/160/7
f 116/160/7 115/159/7 117/161/16 118/162/16
f 119/163/4 102/146/4 101/145/4 120/164/4
f 121/165/16 103/147/16 102/146/17 119/163/17
f 122/166/7 110/154/7 103/147/16 121/165/16
f 123/167/18 108/152/18 110/154/7 122/166/7
f 124/168/19 105/149/19 108/152/18 123/167/18
f 125/169/3 106/150/3 105/149/3 124/168/3
f 126/170/2 107/151/2 106/150/2 125/169/2
f 127/171/2 109/153/2 107/151/2 126/170/2
f 128/172/2 104/148/2 109/153/2 127/171/2
f 120/164/2 101/145/2 104/148/2 128/172/2
f 82/126/15 129/173/15 117/161/15 83/127/15
f 111/155/15 89/133/15 87/131/15 113/157/15
f 85/129/15 115/159/15 113/157/15 87/131/15
f 115/159/15 85/129/15 83/127/15 117/161/15
f 118/162/16 117/161/16 129/173/17 130/174/17
f 130/174/4 129/173/4 82/126/4 81/125/4
