# Blender v2.79 (sub 0) OBJ File: ''
# www.blender.org
mtllib zmywarka.mtl
o dishwasher
v -2.900039 0.018130 -2.177523
v -2.898222 0.516260 -2.180483
v 3.839015 0.516260 -2.180483
v 3.839543 0.018130 -2.177523
v 3.839543 0.018129 4.000000
v -2.900039 0.018129 4.000000
v -2.898222 0.516259 3.880108
v 3.839015 0.516259 3.880108
v -3.051642 7.598279 -2.230687
v -3.051642 7.598279 3.946836
v 4.015700 7.598279 3.946836
v 4.015700 7.598279 -2.230687
v 4.015700 6.917811 -2.225915
v -3.051642 6.917811 -2.225915
v -3.051642 6.917810 3.951608
v 4.015700 6.917810 3.951608
v 4.015700 0.564747 -2.181357
v -3.051642 0.564747 -2.181357
v -3.051642 6.642124 -2.223981
v 4.015700 6.642124 -2.223981
v -3.051642 0.564746 3.879234
v -3.051642 6.642123 3.836610
v 4.015700 0.564746 3.879234
v 4.015700 6.642123 3.836610
v 4.015700 6.660563 -2.224110
v -3.051642 6.660563 -2.224110
v -3.051642 6.660562 3.836480
v 4.015700 6.660562 3.836480
v 3.986622 6.642262 -2.190197
v 3.986622 6.641984 3.802825
v -3.022564 6.660700 -2.190326
v 3.986622 6.660700 -2.190326
v -3.022564 6.642262 -2.190197
v -3.022564 6.660424 3.802696
v -3.022564 6.641984 3.802825
v 3.986622 6.660424 3.802696
v 1.375974 6.914924 3.951688
v 0.928692 6.915379 3.951688
v 0.928708 6.758344 3.951688
v 1.378023 6.758350 3.951688
v -0.357803 6.709188 3.951688
v 0.066012 6.709183 3.951688
v 0.065913 6.758331 3.951688
v -0.394692 6.758325 3.951688
v -0.294272 6.685870 3.951688
v 0.066183 6.686143 3.951688
v -0.392643 6.916745 3.951688
v 0.065918 6.916289 3.951688
v 1.355480 6.709166 3.951688
v 0.928588 6.709170 3.951688
v 1.316542 6.686965 3.951688
v 0.928380 6.686692 3.951688
v 0.497308 6.709177 3.951688
v 0.497276 6.758337 3.951688
v 0.497363 6.686418 3.951688
v 0.497276 6.915833 3.951688
v -0.294272 6.685870 3.828550
v 0.066183 6.686143 3.828550
v 1.378023 6.758350 3.828550
v -0.357803 6.709188 3.828550
v 1.355480 6.709166 3.828550
v 0.497363 6.686418 3.828550
v 1.316542 6.686965 3.828550
v -0.394692 6.758325 3.828550
v 0.928380 6.686692 3.828550
v 1.531387 7.263793 3.981973
v 1.512358 7.242764 3.981973
v 1.828083 7.242790 3.981973
v 1.828083 7.263825 3.981973
v 3.224630 7.344608 3.986549
v 3.219127 7.330842 3.986549
v 3.235976 7.330801 3.986549
v 3.231210 7.349590 3.986549
v 3.067707 7.179676 3.981973
v 3.086902 7.200750 3.981973
v 2.774269 7.200741 3.981973
v 2.774265 7.179676 3.981973
v 1.512692 7.200706 3.981973
v 1.828083 7.200714 3.981973
v 3.397995 7.191114 3.986549
v 3.403769 7.202711 3.986549
v 3.378306 7.202805 3.986549
v 3.382802 7.186108 3.986549
v 3.219134 7.202710 3.986549
v 3.235984 7.202804 3.986549
v 3.397979 7.344505 3.986549
v 3.382785 7.349501 3.986549
v 3.378293 7.330801 3.986549
v 3.403755 7.330841 3.986549
v 3.224639 7.191036 3.986549
v 3.231219 7.186038 3.986549
v 3.067743 7.263975 3.981973
v 2.774265 7.263938 3.981973
v 2.774269 7.242873 3.981973
v 3.086926 7.242899 3.981973
v 1.532040 7.179676 3.981973
v 1.828083 7.179676 3.981973
v 2.774265 7.276929 3.951270
v 2.758729 7.276927 3.951270
v 2.758752 7.249372 3.951270
v 2.774269 7.249372 3.951270
v 2.758752 7.194259 3.951270
v 2.774269 7.194259 3.951270
v 2.758729 7.166701 3.951270
v 2.774265 7.166701 3.951270
v 2.758752 7.200741 3.981973
v 2.467714 7.200733 3.981973
v 2.467714 7.179676 3.981973
v 2.758729 7.179676 3.981973
v 2.758752 7.242872 3.981973
v 2.467714 7.242846 3.981973
v 2.758729 7.263937 3.981973
v 2.467714 7.263903 3.981973
v 2.451700 7.249337 3.951270
v 2.467714 7.249339 3.951270
v 2.467714 7.276883 3.951270
v 2.451700 7.276881 3.951270
v 2.451700 7.194246 3.951270
v 2.467714 7.194248 3.951270
v 2.451700 7.166701 3.951270
v 2.467714 7.166701 3.951270
v 2.451700 7.200733 3.981973
v 2.158681 7.200724 3.981973
v 2.158681 7.179676 3.981973
v 2.451700 7.179676 3.981973
v 2.451700 7.242845 3.981973
v 2.158681 7.242819 3.981973
v 2.451700 7.263901 3.981973
v 2.158681 7.263866 3.981973
v 2.143010 7.249301 3.951270
v 2.158681 7.249302 3.951270
v 2.158681 7.276835 3.951270
v 2.143010 7.276833 3.951270
v 2.143010 7.194234 3.951270
v 2.158681 7.194235 3.951270
v 2.143010 7.166701 3.951270
v 2.158681 7.166701 3.951270
v 2.143010 7.200724 3.981973
v 1.845836 7.200715 3.981973
v 1.845836 7.179676 3.981973
v 2.143010 7.179676 3.981973
v 2.143010 7.242818 3.981973
v 1.845836 7.242793 3.981973
v 2.143010 7.263865 3.981973
v 1.845836 7.263830 3.981973
v 1.828083 7.249263 3.951270
v 1.845836 7.249268 3.951270
v 1.845836 7.276788 3.951270
v 1.828083 7.276783 3.951270
v 1.828083 7.194222 3.951270
v 1.845836 7.194223 3.951270
v 1.828083 7.166701 3.951270
v 1.845836 7.166701 3.951270
v 3.216815 7.170929 3.951270
v 3.396640 7.171011 3.951270
v 3.414664 7.176951 3.951270
v 3.209009 7.176858 3.951270
v 1.512692 7.194211 3.951270
v 1.512358 7.249229 3.951270
v 1.512692 7.194211 3.891800
v 3.202479 7.190707 3.951270
v 1.532040 7.166701 3.951270
v 1.532040 7.166701 3.891800
v 3.202470 7.342711 3.951270
v 1.828083 7.166701 3.891800
v 3.208999 7.359043 3.951270
v 1.845836 7.166701 3.891800
v 3.216804 7.364953 3.951270
v 2.143010 7.166701 3.891800
v 2.158681 7.166701 3.891800
v 2.451700 7.166701 3.891800
v 2.467714 7.166701 3.891800
v 2.758729 7.166701 3.891800
v 3.086926 7.249409 3.951270
v 3.086902 7.194271 3.951270
v 3.086902 7.194271 3.891800
v 2.774265 7.166701 3.891800
v 3.067707 7.166701 3.951270
v 3.067707 7.166701 3.891800
v 3.421513 7.190709 3.951270
v 3.421496 7.342710 3.951270
v 3.414644 7.358921 3.951270
v 3.202479 7.190707 3.891800
v 3.396620 7.364847 3.951270
v 3.209009 7.176858 3.891800
v 3.216815 7.170929 3.891800
v 3.421513 7.190709 3.891800
v 3.396640 7.171011 3.891800
v 3.414664 7.176951 3.891800
v 1.531387 7.276740 3.951270
v 3.067743 7.276977 3.951270
v 3.533480 7.344608 3.986549
v 3.527977 7.330842 3.986549
v 3.544827 7.330801 3.986549
v 3.540060 7.349590 3.986549
v 3.706846 7.191114 3.986549
v 3.712620 7.202711 3.986549
v 3.687156 7.202805 3.986549
v 3.691652 7.186108 3.986549
v 3.527984 7.202710 3.986549
v 3.544834 7.202804 3.986549
v 3.706829 7.344505 3.986549
v 3.691635 7.349501 3.986549
v 3.687143 7.330801 3.986549
v 3.712605 7.330841 3.986549
v 3.533489 7.191036 3.986549
v 3.540069 7.186038 3.986549
v 3.705470 7.364847 3.951270
v 3.525654 7.364953 3.951270
v 3.723494 7.358921 3.951270
v 3.730347 7.342710 3.951270
v 3.511329 7.190707 3.951270
v 3.511320 7.342711 3.951270
v 3.511329 7.190707 3.891800
v 3.730364 7.190709 3.951270
v 3.517859 7.176858 3.951270
v 3.517859 7.176858 3.891800
v 3.723514 7.176951 3.951270
v 3.525666 7.170929 3.951270
v 3.525666 7.170929 3.891800
v 3.730364 7.190709 3.891800
v 3.705490 7.171011 3.951270
v 3.705490 7.171011 3.891800
v 3.723514 7.176951 3.891800
v 3.517849 7.359043 3.951270
vt 0.313351 0.601050
vt 0.313271 0.626189
vt 0.017289 0.626189
vt 0.017266 0.601050
vt 0.679276 0.693769
vt 0.983490 0.693769
vt 0.983490 0.972612
vt 0.679276 0.972612
vt 0.339780 0.178578
vt 0.651517 0.176444
vt 0.645639 0.201623
vt 0.339803 0.203716
vt 0.318811 0.179320
vt 0.318794 0.204458
vt 0.012957 0.202435
vt 0.007073 0.177258
vt 0.678303 0.671620
vt 0.678303 0.392777
vt 0.990244 0.392777
vt 0.990244 0.671620
vt 0.341765 0.597396
vt 0.637850 0.597396
vt 0.637827 0.623252
vt 0.341845 0.623252
vt 0.320011 0.986996
vt 0.009527 0.986996
vt 0.009527 0.952656
vt 0.320011 0.952656
vt 0.651511 0.567588
vt 0.339774 0.569721
vt 0.339780 0.535381
vt 0.651517 0.533247
vt 0.318900 0.571589
vt 0.007163 0.569528
vt 0.007149 0.535188
vt 0.318886 0.537249
vt 0.645589 0.985300
vt 0.335105 0.985300
vt 0.335105 0.950960
vt 0.645589 0.950960
vt 0.009527 0.628636
vt 0.320011 0.628636
vt 0.320011 0.935334
vt 0.009527 0.935334
vt 0.339814 0.211836
vt 0.645650 0.209743
vt 0.645598 0.516440
vt 0.339763 0.518534
vt 0.012940 0.211681
vt 0.318777 0.213704
vt 0.318900 0.520402
vt 0.013063 0.518379
vt 0.335105 0.625699
vt 0.645589 0.625699
vt 0.645589 0.932397
vt 0.335105 0.932397
vt 0.009527 0.939674
vt 0.320011 0.939674
vt 0.339782 0.522399
vt 0.645618 0.520306
vt 0.013044 0.522244
vt 0.318881 0.524267
vt 0.317185 0.521858
vt 0.014758 0.519858
vt 0.318734 0.937969
vt 0.010805 0.937969
vt 0.010805 0.937039
vt 0.318734 0.937039
vt 0.643903 0.518850
vt 0.341477 0.520920
vt 0.341477 0.519989
vt 0.643904 0.517919
vt 0.317186 0.522788
vt 0.014759 0.520788
vt 0.644312 0.935032
vt 0.336382 0.935032
vt 0.336383 0.934102
vt 0.644312 0.934102
vt 0.645589 0.936737
vt 0.335105 0.936737
vt 0.389118 0.084610
vt 0.294968 0.084610
vt 0.294274 0.052874
vt 0.376178 0.052874
vt 0.041388 0.043869
vt 0.118700 0.043445
vt 0.118609 0.052874
vt 0.034881 0.052874
vt 0.051505 0.039654
vt 0.118720 0.038894
vt 0.021945 0.084610
vt 0.117875 0.084610
vt 0.370709 0.043657
vt 0.294153 0.043491
vt 0.364632 0.039812
vt 0.294161 0.039086
vt 0.206250 0.043784
vt 0.206208 0.052874
vt 0.206295 0.039120
vt 0.206380 0.084610
vt 0.042048 0.016616
vt 0.118407 0.013296
vt 0.397482 0.033404
vt 0.027182 0.023438
vt 0.387053 0.023824
vt 0.206229 0.013884
vt 0.377632 0.017925
vt 0.014690 0.033242
vt 0.294484 0.013296
vt 0.382818 0.109576
vt 0.382818 0.117522
vt 0.320440 0.117522
vt 0.320440 0.109576
vt 0.831400 0.188857
vt 0.827511 0.179123
vt 0.839419 0.179091
vt 0.836050 0.192379
vt 0.027197 0.132255
vt 0.027197 0.126127
vt 0.086594 0.126127
vt 0.086594 0.132255
vt 0.382818 0.126127
vt 0.320440 0.126127
vt 0.953920 0.080280
vt 0.958001 0.088480
vt 0.940005 0.088551
vt 0.943183 0.076742
vt 0.827516 0.088511
vt 0.839424 0.088575
vt 0.953908 0.188754
vt 0.943171 0.192289
vt 0.939996 0.179066
vt 0.957991 0.179090
vt 0.831406 0.080255
vt 0.836057 0.076720
vt 0.027197 0.109576
vt 0.086594 0.109576
vt 0.086594 0.117522
vt 0.027197 0.117522
vt 0.382818 0.132255
vt 0.320440 0.132255
vt 0.090649 0.103417
vt 0.095109 0.103417
vt 0.095109 0.117522
vt 0.090649 0.117522
vt 0.095109 0.126127
vt 0.090649 0.126127
vt 0.095109 0.143076
vt 0.090649 0.143076
vt 0.099661 0.126127
vt 0.157895 0.126127
vt 0.157895 0.132255
vt 0.099661 0.132255
vt 0.099661 0.117522
vt 0.157894 0.117522
vt 0.099661 0.109576
vt 0.157894 0.109576
vt 0.168045 0.117522
vt 0.162996 0.117522
vt 0.162996 0.103417
vt 0.168045 0.103417
vt 0.168045 0.126127
vt 0.162996 0.126127
vt 0.168045 0.143076
vt 0.162996 0.143076
vt 0.172967 0.126127
vt 0.230309 0.126127
vt 0.230309 0.132255
vt 0.172967 0.132255
vt 0.172967 0.117522
vt 0.230309 0.117522
vt 0.172967 0.109576
vt 0.230309 0.109576
vt 0.239733 0.117522
vt 0.235281 0.117522
vt 0.235281 0.103417
vt 0.239733 0.103417
vt 0.239733 0.126127
vt 0.235281 0.126127
vt 0.239733 0.143076
vt 0.235281 0.143076
vt 0.244780 0.126127
vt 0.304907 0.126127
vt 0.304907 0.132255
vt 0.244780 0.132255
vt 0.244780 0.117522
vt 0.304907 0.117522
vt 0.244780 0.109576
vt 0.304907 0.109576
vt 0.315275 0.117522
vt 0.309698 0.117522
vt 0.309698 0.103417
vt 0.315275 0.103417
vt 0.315275 0.126127
vt 0.309698 0.126127
vt 0.315275 0.143076
vt 0.309698 0.143076
vt 0.824969 0.065869
vt 0.952053 0.065895
vt 0.964791 0.070093
vt 0.819452 0.070063
vt 0.389374 0.126127
vt 0.395077 0.117522
vt 0.395077 0.126127
vt 0.814837 0.079857
vt 0.389374 0.143076
vt 0.395077 0.150316
vt 0.814831 0.187350
vt 0.315275 0.150316
vt 0.819444 0.198898
vt 0.309698 0.150316
vt 0.824960 0.203076
vt 0.239733 0.150316
vt 0.235281 0.150316
vt 0.168045 0.150316
vt 0.162996 0.150316
vt 0.095109 0.150316
vt 0.019608 0.117522
vt 0.019608 0.126127
vt 0.012657 0.126127
vt 0.090649 0.150316
vt 0.027197 0.143076
vt 0.012657 0.150316
vt 0.969632 0.079820
vt 0.969620 0.187311
vt 0.964777 0.198776
vt 0.800228 0.118237
vt 0.800228 0.333250
vt 0.716106 0.118237
vt 0.952039 0.202970
vt 0.800228 0.098688
vt 0.716106 0.098688
vt 0.431441 0.159998
vt 0.421540 0.159998
vt 0.421540 0.089803
vt 0.431441 0.089803
vt 0.800228 0.334601
vt 0.800228 0.119592
vt 0.716106 0.119592
vt 0.642500 0.159998
vt 0.642500 0.089803
vt 0.800228 0.100090
vt 0.716106 0.100090
vt 0.662916 0.159998
vt 0.662916 0.089803
vt 0.382818 0.103417
vt 0.027197 0.103417
vt 0.828691 0.340060
vt 0.824802 0.330326
vt 0.836710 0.330294
vt 0.833341 0.343582
vt 0.951211 0.231483
vt 0.955292 0.239683
vt 0.937296 0.239754
vt 0.940474 0.227945
vt 0.824807 0.239714
vt 0.836715 0.239778
vt 0.951200 0.339957
vt 0.940462 0.343492
vt 0.937287 0.330269
vt 0.955282 0.330293
vt 0.828697 0.231458
vt 0.833348 0.227923
vt 0.949330 0.354173
vt 0.822251 0.354279
vt 0.962068 0.349979
vt 0.966911 0.338514
vt 0.677269 0.340109
vt 0.677269 0.125096
vt 0.761391 0.340109
vt 0.966923 0.231023
vt 0.677269 0.359658
vt 0.761391 0.359658
vt 0.962082 0.221296
vt 0.432622 0.077633
vt 0.422720 0.077633
vt 0.422720 0.007438
vt 0.432622 0.007438
vt 0.677269 0.123746
vt 0.677269 0.338755
vt 0.761391 0.338755
vt 0.643680 0.077633
vt 0.643680 0.007438
vt 0.677269 0.358257
vt 0.761391 0.358257
vt 0.664096 0.077633
vt 0.664096 0.007438
vt 0.816735 0.350101
vt 0.812122 0.338553
vt 0.812127 0.231060
vt 0.816742 0.221266
vt 0.822260 0.217072
vt 0.949344 0.217098
vn 0.0000 -0.0059 -1.0000
vn 0.0000 -0.0120 -0.9999
vn 0.0000 -1.0000 -0.0000
vn -1.0000 0.0036 0.0000
vn 1.0000 0.0011 0.0000
vn 0.0000 1.0000 0.0000
vn 0.0000 0.2340 0.9722
vn 0.0000 0.1267 0.9919
vn 0.0000 -0.0070 -1.0000
vn -1.0000 -0.0000 0.0000
vn 1.0000 -0.0000 0.0000
vn 0.0000 0.0070 1.0000
vn 0.0000 -0.2054 0.9787
vn 0.0000 -0.0125 -0.9999
vn -0.0000 0.0125 0.9999
vn -0.0000 1.0000 -0.0022
vn -0.0000 1.0000 -0.0020
vn -0.3013 -0.9535 -0.0000
vn 0.2646 -0.9643 -0.0000
vn -0.0000 -1.0000 0.0022
vn -0.0000 -1.0000 0.0020
vn -0.0000 -1.0000 0.0019
vn 0.0000 -0.4085 0.9128
vn 0.0000 0.0000 1.0000
vn 0.0007 -1.0000 0.0000
vn -0.1746 -0.9846 0.0000
vn 0.9999 0.0131 0.0000
vn 0.9784 -0.2068 0.0000
vn -0.5966 -0.8025 0.0000
vn 0.7377 -0.6752 0.0000
vn 0.0006 -1.0000 0.0000
vn 0.2565 -0.9665 0.0000
vn -0.9506 -0.3103 0.0000
vn -0.9999 0.0129 0.0000
vn -0.5098 0.3873 0.7682
vn -0.1542 0.4767 0.8655
vn 0.4089 -0.4785 0.7771
vn 0.4856 -0.1116 0.8670
vn 0.4204 0.4617 0.7811
vn 0.4924 0.0978 0.8649
vn -0.4996 -0.4041 0.7662
vn -0.1552 -0.4785 0.8643
vn -0.3045 -0.9208 0.2437
vn 0.1533 -0.9626 0.2235
vn 0.1401 -0.8892 0.4355
vn 0.6273 -0.7290 0.2740
vn -0.7490 -0.6064 0.2669
vn -0.9471 -0.3169 0.0512
vn -0.9757 0.2086 0.0674
vn -0.9525 -0.3046 0.0000
vn -0.9469 -0.2100 0.2433
vn -0.8617 -0.1888 0.4710
vn -0.4481 -0.8786 0.1649
vn -0.4608 -0.8875 0.0000
vn -0.9413 0.1122 0.3184
vn -0.8696 0.1641 0.4658
vn 0.0000 -0.9912 0.1321
vn -0.6827 0.5186 0.5147
vn -0.2709 0.8372 0.4752
vn -0.0001 0.9213 0.3889
vn 0.9746 0.2134 0.0679
vn 0.9488 -0.3118 0.0509
vn 0.9540 -0.2997 -0.0000
vn 0.4503 -0.8776 0.1647
vn 0.4629 -0.8864 0.0000
vn 0.9416 -0.2191 0.2556
vn 0.9352 0.1167 0.3344
vn 0.5721 0.6284 0.5270
vn -0.9758 -0.2186 0.0000
vn 0.1394 0.8869 0.4405
vn 0.1395 0.8869 0.4405
vn -0.7770 -0.6295 0.0000
vn -0.3189 -0.9478 0.0000
vn 0.9734 -0.2289 -0.0000
vn 0.1587 -0.9873 0.0000
vn 0.6546 -0.7560 0.0000
vn -0.0001 0.9214 0.3887
vn -0.4275 0.8451 0.3210
vn -0.4275 0.8451 0.3211
vn -0.9425 0.3184 0.1018
vn -0.9388 -0.3286 0.1030
vn -0.4237 -0.8466 0.3221
vn 0.0000 -0.9211 0.3892
vn -1.0000 0.0001 -0.0000
vn -1.0000 0.0002 -0.0001
vn 0.4260 -0.8456 0.3218
vn 0.0000 -0.9211 0.3893
vn 0.9407 -0.3233 0.1024
vn 0.9409 0.3227 0.1026
vn 0.4260 0.8454 0.3224
vn -0.0001 0.9209 0.3898
vn -1.0000 -0.0002 -0.0001
vn -1.0000 -0.0001 -0.0000
vn 1.0000 -0.0010 0.0003
vn 1.0000 -0.0005 0.0002
vn 1.0000 -0.0004 0.0001
vn 1.0000 0.0005 0.0002
vn 1.0000 0.0004 0.0001
vn 1.0000 0.0010 0.0003
vn -0.0001 0.9210 0.3895
vn -0.0001 0.9211 0.3893
vn 0.4855 -0.1116 0.8671
vn -0.2709 0.8372 0.4751
vn 0.9352 0.1166 0.3344
vn -0.3046 -0.9208 0.2437
vn 0.9735 -0.2289 -0.0000
vn 0.6545 -0.7560 0.0000
vn -0.8617 -0.1889 0.4710
vn 0.1401 -0.8892 0.4354
usemtl scene_material
s 1
f 1/1/1 2/2/2 3/3/2 4/4/1
f 1/5/3 4/6/3 5/7/3 6/8/3
f 1/9/4 6/10/4 7/11/4 2/12/4
f 4/13/5 3/14/5 8/15/5 5/16/5
f 9/17/6 10/18/6 11/19/6 12/20/6
f 6/21/7 5/22/7 8/23/8 7/24/8
f 9/25/9 12/26/9 13/27/9 14/28/9
f 10/29/10 9/30/10 14/31/10 15/32/10
f 12/33/11 11/34/11 16/35/11 13/36/11
f 11/37/12 10/38/12 15/39/13 16/40/13
f 17/41/14 18/42/14 19/43/9 20/44/9
f 18/45/10 21/46/10 22/47/10 19/48/10
f 23/49/11 17/50/11 20/51/11 24/52/11
f 21/53/15 23/54/15 24/55/12 22/56/12
f 14/28/9 13/27/9 25/57/9 26/58/9
f 15/32/10 14/31/10 26/59/10 27/60/10
f 13/36/11 16/35/11 28/61/11 25/62/11
f 24/52/16 20/51/16 29/63/17 30/64/17
f 31/65/9 32/66/9 29/67/9 33/68/9
f 34/69/10 31/70/10 33/71/10 35/72/10
f 32/73/11 36/74/11 30/64/11 29/63/11
f 36/75/12 34/76/12 35/77/12 30/78/12
f 18/42/14 17/41/14 3/3/2 2/2/2
f 21/46/18 18/45/18 2/12/18 7/11/18
f 17/50/19 23/49/19 8/15/19 3/14/19
f 23/54/15 21/53/15 7/24/8 8/23/8
f 26/58/20 25/57/20 32/66/21 31/65/21
f 25/62/20 28/61/22 36/74/21 32/73/21
f 28/79/22 27/80/22 34/76/21 36/75/21
f 27/60/22 26/59/20 31/70/21 34/69/21
f 20/44/16 19/43/16 33/68/17 29/67/17
f 19/48/16 22/47/16 35/72/17 33/71/17
f 22/56/16 24/55/16 30/78/17 35/77/17
f 15/39/13 27/80/23 28/79/23 16/40/13
f 37/81/24 38/82/24 39/83/24 40/84/24
f 41/85/24 42/86/24 43/87/24 44/88/24
f 45/89/24 46/90/24 42/86/24 41/85/24
f 47/91/24 44/88/24 43/87/24 48/92/24
f 49/93/24 40/84/24 39/83/24 50/94/24
f 51/95/24 49/93/24 50/94/24 52/96/24
f 53/97/24 54/98/24 43/87/24 42/86/24
f 55/99/24 53/97/24 42/86/24 46/90/24
f 54/98/24 56/100/24 48/92/24 43/87/24
f 56/100/24 54/98/24 39/83/24 38/82/24
f 54/98/24 53/97/24 50/94/24 39/83/24
f 53/97/24 55/99/24 52/96/24 50/94/24
f 46/90/25 45/89/26 57/101/26 58/102/25
f 37/81/27 40/84/28 59/103/28
f 45/89/26 41/85/29 60/104/29 57/101/26
f 40/84/28 49/93/30 61/105/30 59/103/28
f 55/99/31 46/90/25 58/102/25 62/106/31
f 49/93/30 51/95/32 63/107/32 61/105/30
f 41/85/29 44/88/33 64/108/33 60/104/29
f 51/95/32 52/96/25 65/109/25 63/107/32
f 44/88/33 47/91/34 64/108/33
f 52/96/25 55/99/31 62/106/31 65/109/25
f 66/110/24 67/111/24 68/112/24 69/113/24
f 70/114/35 71/115/24 72/116/24 73/117/36
f 74/118/24 75/119/24 76/120/24 77/121/24
f 67/111/24 78/122/24 79/123/24 68/112/24
f 80/124/37 81/125/38 82/126/24 83/127/24
f 71/115/24 84/128/24 85/129/24 72/116/24
f 86/130/39 87/131/24 88/132/24 89/133/40
f 90/134/41 91/135/42 85/129/24 84/128/24
f 89/133/40 88/132/24 82/126/24 81/125/38
f 87/131/24 73/117/36 72/116/24 88/132/24
f 88/132/24 72/116/24 85/129/24 82/126/24
f 82/126/24 85/129/24 91/135/42 83/127/24
f 92/136/24 93/137/24 94/138/24 95/139/24
f 96/140/24 97/141/24 79/123/24 78/122/24
f 95/139/24 94/138/24 76/120/24 75/119/24
f 98/142/24 99/143/24 100/144/24 101/145/24
f 101/145/24 100/144/24 102/146/24 103/147/24
f 103/147/24 102/146/24 104/148/24 105/149/24
f 106/150/24 107/151/24 108/152/24 109/153/24
f 110/154/24 111/155/24 107/151/24 106/150/24
f 112/156/24 113/157/24 111/155/24 110/154/24
f 114/158/24 115/159/24 116/160/24 117/161/24
f 118/162/24 119/163/24 115/159/24 114/158/24
f 120/164/24 121/165/24 119/163/24 118/162/24
f 122/166/24 123/167/24 124/168/24 125/169/24
f 126/170/24 127/171/24 123/167/24 122/166/24
f 128/172/24 129/173/24 127/171/24 126/170/24
f 130/174/24 131/175/24 132/176/24 133/177/24
f 134/178/24 135/179/24 131/175/24 130/174/24
f 136/180/24 137/181/24 135/179/24 134/178/24
f 138/182/24 139/183/24 140/184/24 141/185/24
f 142/186/24 143/187/24 139/183/24 138/182/24
f 144/188/24 145/189/24 143/187/24 142/186/24
f 146/190/24 147/191/24 148/192/24 149/193/24
f 150/194/24 151/195/24 147/191/24 146/190/24
f 152/196/24 153/197/24 151/195/24 150/194/24
f 154/198/43 155/199/44 83/127/45 91/135/42
f 155/199/44 156/200/46 80/124/37 83/127/45
f 157/201/47 154/198/43 91/135/42 90/134/41
f 158/202/48 159/203/49 160/204/50
f 161/205/51 157/201/47 90/134/41 84/128/52
f 162/206/53 158/202/48 160/204/50 163/207/54
f 164/208/55 161/205/51 84/128/52 71/115/56
f 152/196/57 162/206/53 163/207/54 165/209/3
f 166/210/58 164/208/55 71/115/56 70/114/35
f 153/197/57 152/196/57 165/209/3 167/211/3
f 168/212/59 166/210/58 70/114/35 73/117/36
f 136/180/57 153/197/57 167/211/3 169/213/3
f 147/191/10 151/195/10 139/183/10 143/187/10
f 137/181/57 136/180/57 169/213/3 170/214/3
f 148/192/10 147/191/10 143/187/10 145/189/10
f 120/164/57 137/181/57 170/214/3 171/215/3
f 133/177/60 148/192/60 145/189/60 144/188/60
f 121/165/57 120/164/57 171/215/3 172/216/3
f 130/174/11 133/177/11 144/188/11 142/186/11
f 104/148/57 121/165/57 172/216/3 173/217/3
f 174/218/61 175/219/62 176/220/63
f 105/149/57 104/148/57 173/217/3 177/221/3
f 175/219/62 178/222/64 179/223/65 176/220/63
f 178/222/64 105/149/57 177/221/3 179/223/65
f 180/224/66 181/225/67 89/133/40 81/125/38
f 156/200/46 180/224/66 81/125/38 80/124/37
f 181/225/67 182/226/68 86/130/39 89/133/40
f 161/227/51 164/228/55 183/229/69
f 184/230/70 168/212/59 73/117/36 87/131/71
f 157/231/47 161/227/51 183/229/69 185/232/72
f 182/226/68 184/230/70 87/131/71 86/130/39
f 154/233/43 157/234/47 185/235/72 186/236/73
f 181/237/67 180/238/66 187/239/74
f 155/240/44 154/233/43 186/236/73 188/241/75
f 180/238/66 156/242/46 189/243/76 187/239/74
f 156/244/46 155/240/44 188/241/75 189/245/76
f 146/190/11 149/193/11 69/113/11 68/112/11
f 149/193/77 190/246/78 66/110/79 69/113/77
f 190/246/78 159/203/49 67/111/80 66/110/79
f 159/203/49 158/202/48 78/122/81 67/111/80
f 158/202/48 162/206/53 96/140/82 78/122/81
f 162/206/53 152/196/57 97/141/83 96/140/82
f 152/196/11 150/194/11 79/123/11 97/141/11
f 150/194/11 146/190/11 68/112/11 79/123/11
f 103/147/84 105/149/85 77/121/85 76/120/84
f 105/149/57 178/222/64 74/118/86 77/121/87
f 178/222/64 175/219/62 75/119/88 74/118/86
f 175/219/62 174/218/61 95/139/89 75/119/88
f 174/218/61 191/247/90 92/136/90 95/139/89
f 191/247/90 98/142/91 93/137/91 92/136/90
f 98/142/92 101/145/93 94/138/93 93/137/92
f 101/145/93 103/147/84 76/120/84 94/138/93
f 119/163/10 121/165/10 108/152/10 107/151/10
f 121/165/57 104/148/57 109/153/87 108/152/87
f 104/148/94 102/146/95 106/150/96 109/153/94
f 102/146/95 100/144/97 110/154/98 106/150/96
f 100/144/97 99/143/99 112/156/99 110/154/98
f 99/143/100 116/160/100 113/157/100 112/156/100
f 116/160/10 115/159/10 111/155/10 113/157/10
f 115/159/10 119/163/10 107/151/10 111/155/10
f 135/179/10 137/181/10 124/168/10 123/167/10
f 137/181/57 120/164/57 125/169/83 124/168/83
f 120/164/11 118/162/11 122/166/11 125/169/11
f 118/162/11 114/158/11 126/170/11 122/166/11
f 114/158/11 117/161/11 128/172/11 126/170/11
f 117/161/101 132/176/101 129/173/101 128/172/101
f 132/176/10 131/175/10 127/171/10 129/173/10
f 131/175/10 135/179/10 123/167/10 127/171/10
f 151/195/10 153/197/10 140/184/10 139/183/10
f 153/197/57 136/180/57 141/185/87 140/184/87
f 136/180/11 134/178/11 138/182/11 141/185/11
f 134/178/11 130/174/11 142/186/11 138/182/11
f 192/248/35 193/249/24 194/250/24 195/251/36
f 196/252/37 197/253/102 198/254/24 199/255/24
f 193/249/24 200/256/24 201/257/24 194/250/24
f 202/258/39 203/259/24 204/260/24 205/261/40
f 206/262/41 207/263/42 201/257/24 200/256/24
f 205/261/40 204/260/24 198/254/24 197/253/102
f 203/259/24 195/251/36 194/250/24 204/260/24
f 204/260/24 194/250/24 201/257/24 198/254/24
f 198/254/24 201/257/24 207/263/42 199/255/24
f 208/264/70 209/265/103 195/251/36 203/259/71
f 210/266/68 208/264/70 203/259/71 202/258/39
f 211/267/104 210/266/68 202/258/39 205/261/40
f 212/268/51 213/269/55 214/270/69
f 215/271/66 211/267/104 205/261/40 197/253/102
f 216/272/47 212/268/51 214/270/69 217/273/72
f 218/274/46 215/271/66 197/253/102 196/252/37
f 219/275/105 216/276/47 217/277/72 220/278/73
f 211/279/104 215/280/66 221/281/106
f 222/282/44 219/275/105 220/278/73 223/283/75
f 215/280/66 218/284/46 224/285/107 221/281/106
f 218/286/46 222/282/44 223/283/75 224/287/107
f 209/265/103 225/288/58 192/248/35 195/251/36
f 225/288/58 213/289/55 193/249/56 192/248/35
f 213/289/55 212/290/51 200/256/108 193/249/56
f 212/290/51 216/291/47 206/262/41 200/256/108
f 216/291/47 219/292/105 207/263/42 206/262/41
f 219/292/105 222/293/44 199/255/109 207/263/42
f 222/293/44 218/274/46 196/252/37 199/255/109
